<svg version="1.2" xmlns="http://www.w3.org/2000/svg" viewBox="0 0 550 400" width="550" height="400">
	<title>logo-svg</title>
	<style>
		.s0 { fill: #ffffff } 
	</style>
	<g id="Layer">
		<g id="Layer">
			<g id="Layer">
				<path id="Layer" class="s0" d="m247.3 320h-1.2v-10.2h5.7v1.1h-4.5v3.6h4.2v1.2h-4.2z"/>
				<path id="Layer" class="s0" d="m275.2 320h-3.7v-0.7l1.2-0.3v-8.2l-1.2-0.3v-0.7h3.7v0.7l-1.2 0.3v8.2l1.2 0.3z"/>
				<path id="Layer" class="s0" d="m300.8 320h-1.3v-9.1h-3.2v-1.1h7.6v1.1h-3.1z"/>
			</g>
			<g id="Layer">
				<path id="Layer" class="s0" d="m118.6 292.8l7.2-29.3q0.3-1 0.9-1.6 0.7-0.5 1.5-0.5 0.7 0 1.4 0.5 0.7 0.6 0.9 1.6l7.2 29.3 8.4-30q0.2-0.7 0.7-1 0.4-0.3 1-0.3 0.6 0 1.2 0.4 0.5 0.4 0.5 1.2 0 0.2-0.1 0.6l-9.2 31.4q-0.3 0.9-1 1.4-0.8 0.5-1.5 0.5-0.7 0-1.6-0.5-0.8-0.4-1-1.4l-7-27.8-7 27.8q-0.2 0.9-1 1.4-0.7 0.5-1.5 0.5-0.8 0-1.5-0.5-0.8-0.5-1-1.4l-9.2-31.4q-0.1-0.4-0.1-0.6 0-0.7 0.5-1.2 0.6-0.5 1.3-0.5 0.5 0 1 0.4 0.5 0.3 0.7 1z"/>
				<path id="Layer" class="s0" d="m187.6 261.7q0.7 0 1.2 0.5 0.5 0.5 0.5 1.2 0 0.7-0.5 1.3-0.5 0.5-1.2 0.5h-15.5v10.8h14.6q0.8 0 1.3 0.6 0.5 0.5 0.5 1.2 0 0.7-0.5 1.3-0.5 0.6-1.3 0.6h-14.6v13.5h15.4q0.7 0 1.2 0.5 0.5 0.5 0.5 1.2 0 0.8-0.5 1.3-0.5 0.5-1.2 0.5h-17.2q-0.8 0-1.3-0.5-0.5-0.5-0.5-1.3v-31.5q0-0.7 0.5-1.2 0.5-0.5 1.3-0.5z"/>
				<path id="Layer" fill-rule="evenodd" class="s0" d="m230.8 285.3h-16l-4.5 10.3q-0.3 0.7-0.8 1.1-0.4 0.3-0.9 0.3-0.7 0-1.2-0.5-0.5-0.5-0.5-1.2 0-0.5 0.2-1l14-31.6q0.4-0.8 0.8-1 0.4-0.3 1-0.3 0.5 0 0.9 0.3 0.4 0.2 0.8 1l13.9 31.6q0.2 0.5 0.2 1 0 0.7-0.5 1.2-0.5 0.5-1.1 0.5-0.5 0-1-0.3-0.5-0.4-0.8-1.1zm-14.5-3.3h13l-6.5-15z"/>
				<path id="Layer" fill-rule="evenodd" class="s0" d="m268.4 261.7q2.1 0 3.9 0.8 1.9 0.8 3.3 2.2 1.4 1.4 2.2 3.2 0.8 1.8 0.8 3.9 0 1.8-0.6 3.4-0.5 1.6-1.6 2.9-1 1.3-2.4 2.2-1.3 0.9-2.9 1.3l6.4 12.6q0.2 0.6 0.2 1 0 0.7-0.5 1.2-0.6 0.6-1.3 0.6-0.4 0-0.8-0.3-0.5-0.3-0.7-0.8l-7-13.9h-6.6v12.9q0 2.1-1.7 2.1-1.8 0-1.8-2.1v-30.8q0-2.4 2.4-2.4zm-7.6 16.7h7.7q1.4 0 2.6-0.5 1.2-0.5 2.1-1.4 0.9-0.9 1.4-2.1 0.5-1.3 0.5-2.6 0-1.4-0.5-2.6-0.5-1.2-1.4-2.1-0.9-0.8-2.1-1.4-1.2-0.5-2.6-0.5h-7.7z"/>
				<path id="Layer" fill-rule="evenodd" class="s0" d="m320.7 285.3h-16l-4.5 10.3q-0.3 0.7-0.8 1.1-0.5 0.3-1 0.3-0.6 0-1.1-0.5-0.5-0.5-0.5-1.2 0-0.5 0.2-1l14-31.6q0.3-0.8 0.8-1 0.4-0.3 0.9-0.3 0.6 0 1 0.3 0.4 0.2 0.8 1l13.9 31.6q0.2 0.5 0.2 1 0 0.7-0.5 1.2-0.5 0.5-1.2 0.5-0.5 0-0.9-0.3-0.5-0.4-0.8-1.1zm-14.5-3.3h13l-6.5-15z"/>
				<path id="Layer" fill-rule="evenodd" class="s0" d="m355.5 261.7q1.9 0 3.5 0.7 1.7 0.7 2.9 1.9 1.3 1.2 2 2.9 0.7 1.6 0.7 3.6 0 3.8-2.9 6.3 1.4 0.5 2.6 1.4 1.3 0.9 2.2 2.2 0.9 1.2 1.4 2.7 0.5 1.5 0.5 3.1 0 2.1-0.8 4-0.8 1.8-2.2 3.2-1.4 1.4-3.3 2.2-1.8 0.8-3.9 0.8h-9.3q-0.8 0-1.3-0.5-0.4-0.5-0.4-1.3v-31.5q0-0.7 0.4-1.2 0.5-0.5 1.3-0.5zm-4.8 31.5h7.6q1.3 0 2.5-0.6 1.2-0.5 2.2-1.4 0.9-0.9 1.4-2.1 0.5-1.1 0.5-2.5 0-1.4-0.5-2.6-0.5-1.2-1.4-2.1-1-0.9-2.2-1.5-1.2-0.5-2.5-0.5h-7.6zm0-16.7h4.8q2.4 0 4-1.7 1.5-1.6 1.5-4 0-1.2-0.4-2.2-0.4-1-1.2-1.7-0.7-0.8-1.7-1.2-1-0.5-2.2-0.5h-4.8z"/>
				<path id="Layer" class="s0" d="m390.8 293.2h11.6q2.1 0 2.1 1.7 0 1.8-2.1 1.8h-13.5q-0.7 0-1.2-0.5-0.5-0.5-0.5-1.3v-31.5q0-2 1.7-2 1.9 0 1.9 2.1z"/>
				<path id="Layer" class="s0" d="m441.5 261.7q0.7 0 1.2 0.5 0.5 0.5 0.5 1.2 0 0.7-0.5 1.3-0.5 0.5-1.2 0.5h-15.5v10.8h14.6q0.8 0 1.3 0.6 0.5 0.5 0.5 1.2 0 0.7-0.5 1.3-0.5 0.6-1.3 0.6h-14.6v13.5h15.4q0.7 0 1.2 0.5 0.5 0.5 0.5 1.2 0 0.8-0.5 1.3-0.5 0.5-1.2 0.5h-17.2q-0.8 0-1.3-0.5-0.4-0.5-0.4-1.3v-31.5q0-0.7 0.4-1.2 0.5-0.5 1.3-0.5z"/>
			</g>
			<g id="Layer">
				<path id="Layer" fill-rule="evenodd" class="s0" d="m339.4 173.6v0.3 0.7q0 0 0 0v0.7q0 0 0 0l-0.1 0.7q0 0 0 0.1v0.7q0 0 0 0l-0.1 0.7q0 0 0 0l-0.1 0.7q0 0 0 0.1l-0.2 0.6q0 0.1 0 0.1l-0.1 0.7q0 0 0 0l-0.2 0.7q0 0 0 0l-0.2 0.7q0 0 0 0.1l-0.2 0.6q0 0 0 0.1l-0.2 0.6q0 0 0 0.1l-0.3 0.6q0 0 0 0.1l-0.3 0.6q0 0 0 0.1l-0.3 0.6q0 0 0 0l-0.3 0.7q0 0 0 0l-0.4 0.6q0 0 0 0.1l-0.3 0.6q-0.1 0-0.1 0l-0.3 0.6q-0.1 0-0.1 0l-0.4 0.6q0 0 0 0.1l-0.4 0.5q0 0 0 0.1l-0.5 0.5q0 0 0 0.1l-0.4 0.5q-0.1 0-0.1 0l-0.4 0.5q-0.1 0.1-0.1 0.1l-0.4 0.5q-0.1 0-0.1 0l-0.5 0.5q0 0 0 0l-0.5 0.5q0 0-0.1 0l-0.5 0.5q0 0 0 0l-0.6 0.5q0 0 0 0l-0.5 0.4q-0.1 0-0.1 0l-0.5 0.4q0 0.1-0.1 0.1l-0.5 0.4q0 0-0.1 0l-0.5 0.4q-0.1 0-0.1 0l-0.6 0.4q0 0 0 0l-0.6 0.3-4.3 2.5-0.6 0.3-0.6 0.4-0.6 0.3-5.3 3.1-4.2 2.5-1.8 1-0.6 0.3-1.2 0.7-0.6 0.4-0.6 0.3-0.6 0.4-5.4 3.1-3.6 2.1-5.4 3.1-2.4 1.4-1.8 1-0.2 0.1-0.6 0.3q0 0.1 0 0.1l-0.6 0.3q-0.1 0-0.1 0l-0.6 0.3q0 0 0 0l-0.7 0.3q0 0 0 0l-0.6 0.3q-0.1 0-0.1 0l-0.6 0.3q-0.1 0-0.1 0l-0.6 0.2q0 0-0.1 0l-0.6 0.3q0 0-0.1 0l-0.6 0.2q-0.1 0-0.1 0l-0.7 0.2q0 0 0 0l-0.7 0.1q0 0 0 0.1l-0.7 0.1q0 0-0.1 0l-0.6 0.1q-0.1 0-0.1 0l-0.7 0.1q0 0 0 0l-0.7 0.1q-0.1 0-0.1 0h-0.7q0 0 0 0l-0.7 0.1q0 0-0.1 0h-0.7q0 0 0 0l-0.7-0.1q0 0-0.1 0h-0.7q0 0 0 0l-0.7-0.1q0 0-0.1 0l-0.6-0.1q-0.1 0-0.1 0l-0.7-0.1q0 0 0-0.1l-0.7-0.1q0 0-0.1 0l-0.6-0.2q-0.1 0-0.1 0l-0.6-0.2q-0.1 0-0.1 0l-0.7-0.2q0 0 0 0l-0.7-0.2q0 0 0 0l-0.6-0.3q-0.1 0-0.1 0l-0.6-0.3q0 0-0.1 0l-0.6-0.3q0 0 0 0l-0.7-0.3q0 0 0 0l-0.6-0.3q0 0-0.1 0l-0.6-0.3q0-0.1 0-0.1l-0.6-0.3-1.9-1.1-0.6-0.3-5.4-3.1-1.8-1.1-0.6-0.3-0.6-0.4-0.6-0.3-1.8-1.1-4.7-2.7-3-1.7-1.2-0.7-5.4-3.1-1.2-0.7-2.4-1.4-0.6-0.4-0.6-0.3-0.6-0.4-5.4-3.1-1.2-0.7-0.2-0.1-0.6-0.3q0-0.1 0-0.1l-0.6-0.3q0 0-0.1-0.1l-0.5-0.3q0-0.1-0.1-0.1l-0.5-0.4q0 0-0.1 0l-0.5-0.4q0 0-0.1 0l-0.5-0.5q0 0 0 0l-0.6-0.4q0 0 0-0.1l-0.5-0.4q0 0-0.1-0.1l-0.5-0.4q0 0 0-0.1l-0.5-0.5q0 0 0 0l-0.5-0.5q0 0 0 0l-0.5-0.6q0 0 0 0l-0.5-0.5q0-0.1 0-0.1l-0.4-0.5q0 0 0-0.1l-0.4-0.5q-0.1-0.1-0.1-0.1l-0.4-0.6q0 0 0 0l-0.4-0.6q0 0 0 0l-0.3-0.6q0-0.1-0.1-0.1l-0.3-0.6q0 0 0-0.1l-0.3-0.6q0 0 0 0l-0.3-0.7q0 0 0 0l-0.3-0.6q0-0.1 0-0.1l-0.2-0.6q0-0.1-0.1-0.1l-0.2-0.7q0 0 0 0l-0.2-0.7q0 0 0 0l-0.2-0.7q0 0 0 0l-0.1-0.7q0 0 0-0.1l-0.2-0.6q0-0.1 0-0.1l-0.1-0.7q0 0 0 0l-0.1-0.7q0 0 0 0l-0.1-0.7q0-0.1 0-0.1v-0.7q0 0 0 0l-0.1-0.7q0 0 0 0v-0.7q0 0 0-0.1v-0.7-0.7-45-0.2-0.7q0 0 0-0.1v-0.6q0-0.1 0-0.1l0.1-0.7q0 0 0 0v-0.7q0 0 0 0l0.1-0.7q0-0.1 0-0.1l0.1-0.7q0 0 0 0l0.2-0.7q0 0 0 0l0.1-0.7q0 0 0-0.1l0.2-0.6q0-0.1 0-0.1l0.2-0.6q0-0.1 0-0.1l0.2-0.7q0 0 0 0l0.2-0.7q0 0 0 0l0.3-0.7q0 0 0 0l0.3-0.7q0 0 0 0l0.3-0.6q0-0.1 0-0.1l0.3-0.6q0 0 0-0.1l0.4-0.6q0 0 0 0l0.3-0.6q0.1 0 0.1-0.1l0.3-0.5q0.1-0.1 0.1-0.1l0.4-0.6q0 0 0 0l0.4-0.6q0 0 0 0l0.5-0.6q0 0 0 0l0.4-0.5q0.1 0 0.1-0.1l0.4-0.5q0.1 0 0.1 0l0.4-0.5q0.1 0 0.1-0.1l0.5-0.4q0-0.1 0-0.1l0.5-0.4q0-0.1 0.1-0.1l0.5-0.4q0 0 0-0.1l0.6-0.4q0 0 0 0l0.5-0.5q0.1 0 0.1 0l0.5-0.4q0 0 0.1 0l0.5-0.4q0 0 0.1 0l0.5-0.4q0.1 0 0.1 0l0.6-0.4q0 0 0 0l0.6-0.4 3.1-1.8 3-1.7 3-1.7 0.5-0.4 1.2-0.6 1.8-1.1 0.6-0.3 2.4-1.4 3-1.7 6-3.5 0.6-0.3 1.2-0.7 0.6-0.4 5.4-3.1 1.2-0.7 0.6-0.3 1.8-1.1 0.6-0.3 3-1.7 0.2-0.1 0.6-0.4q0 0 0 0l0.6-0.3q0.1 0 0.1 0l0.6-0.4q0 0 0 0l0.7-0.3q0 0 0 0l0.6-0.3q0.1 0 0.1 0l0.6-0.2q0.1 0 0.1 0l0.6-0.3q0 0 0.1 0l0.6-0.2q0 0 0.1 0l0.6-0.2q0.1 0 0.1 0l0.6-0.2q0.1 0 0.1 0l0.7-0.2q0 0 0 0l0.7-0.1q0 0 0.1 0l0.6-0.2q0.1 0 0.1 0l0.7-0.1q0 0 0 0h0.7q0.1 0 0.1 0l0.7-0.1q0 0 0 0h0.7q0 0 0.1 0h0.7q0 0 0 0h0.7q0 0 0.1 0l0.7 0.1q0 0 0 0l0.7 0.1q0 0 0.1 0l0.6 0.1q0.1 0 0.1 0l0.7 0.1q0 0 0 0l0.7 0.2q0 0 0.1 0l0.6 0.1q0.1 0 0.1 0l0.6 0.2q0.1 0 0.1 0l0.7 0.2q0 0.1 0 0.1l0.7 0.2q0 0 0 0l0.6 0.2q0.1 0.1 0.1 0.1l0.6 0.2q0 0 0.1 0l0.6 0.3q0 0 0 0l0.7 0.3q0 0 0 0l0.6 0.4q0 0 0.1 0l0.6 0.3q0 0 0 0l0.6 0.4h0.1l1.8 1 4.2 2.5 1.8 1 6 3.5 0.6 0.3 0.6 0.3 0.6 0.4 1.7 1 3 1.8 0.6 0.3 0.6 0.3 5.4 3.2 1.2 0.6 2.4 1.4 5.4 3.1 2.4 1.4 0.6 0.4 0.6 0.3 0.2 0.1 0.6 0.4q0 0 0 0l0.6 0.4q0 0 0.1 0l0.5 0.4q0 0 0.1 0l0.5 0.4q0 0 0.1 0l0.5 0.5q0 0 0.1 0l0.5 0.4q0 0 0 0l0.6 0.5q0 0 0 0l0.5 0.5q0 0 0.1 0l0.5 0.5q0 0 0 0l0.5 0.5q0 0 0 0l0.5 0.6q0 0 0 0l0.5 0.5q0 0 0 0.1l0.5 0.5q0 0 0 0l0.4 0.6q0 0 0 0l0.4 0.6q0.1 0 0.1 0l0.4 0.6q0 0 0 0.1l0.4 0.5q0 0.1 0 0.1l0.3 0.6q0 0 0.1 0l0.3 0.7q0 0 0 0l0.3 0.6q0 0.1 0 0.1l0.3 0.6q0 0 0 0.1l0.3 0.6q0 0 0 0.1l0.2 0.6q0 0 0.1 0.1l0.2 0.6q0 0 0 0.1l0.2 0.6q0 0.1 0 0.1l0.2 0.6q0 0.1 0 0.1l0.1 0.7q0 0 0 0l0.2 0.7q0 0 0 0l0.1 0.7q0 0 0 0.1l0.1 0.7q0 0 0 0l0.1 0.7q0 0 0 0v0.7q0 0 0 0.1l0.1 0.6q0 0.1 0 0.1v0.7q0 0 0 0v0.7zm-3.3-45.7v-0.6-0.7l-0.1-0.6v-0.7l-0.1-0.6-0.1-0.7-0.1-0.6-0.1-0.6-0.2-0.7-0.1-0.6-0.2-0.6-0.2-0.6-0.2-0.6-0.2-0.6-0.3-0.6-0.3-0.5-0.3-0.6-0.3-0.6-0.3-0.5-0.4-0.5-0.3-0.5-0.4-0.5-0.4-0.5-0.5-0.5-0.4-0.5-0.4-0.4-0.5-0.5-0.5-0.4-0.5-0.4-0.5-0.4-0.5-0.4-0.5-0.4-0.6-0.3-0.5-0.4-0.6-0.3-0.2-0.1-3-1.8-0.6-0.3-5.3-3.1-3-1.7-0.6-0.4-5.4-3.1-2.4-1.4-1.2-0.7-2.4-1.4-0.6-0.3-0.6-0.3-0.6-0.4-6-3.4-1.8-1.1-4.2-2.4-1.8-1v-0.1l-0.6-0.3-0.6-0.3-0.6-0.3-0.6-0.3-0.5-0.2-0.6-0.3-0.6-0.2-0.7-0.2-0.6-0.2-0.6-0.2-0.6-0.1-0.6-0.2-0.7-0.1-0.6-0.1h-0.6l-0.6-0.1h-0.7-0.6-0.7l-0.6 0.1h-0.6l-0.6 0.1-0.7 0.1-0.6 0.1-0.6 0.2-0.6 0.1-0.7 0.2-0.6 0.2-0.6 0.3-0.6 0.2-0.6 0.2-0.5 0.3-0.6 0.3-0.6 0.3-0.6 0.3-0.2 0.1-3 1.8-0.6 0.3-0.6 0.3-1.1 0.7-0.6 0.4-0.6 0.3-0.6 0.4-5.4 3.1-0.6 0.3-0.6 0.4-1.2 0.7-6 3.4-3 1.7-2.4 1.4-0.6 0.4-0.6 0.3-1.2 0.7-1.2 0.7-0.6 0.3-3 1.8-3 1.7-3 1.8-0.6 0.3-0.6 0.4-0.5 0.3-0.5 0.4-0.6 0.4-0.5 0.4-0.5 0.4-0.4 0.4-0.5 0.4-0.5 0.5-0.4 0.4-0.4 0.5-0.4 0.5-0.4 0.5-0.4 0.5-0.4 0.5-0.3 0.6-0.3 0.5-0.3 0.6-0.3 0.5-0.3 0.6-0.2 0.6-0.2 0.6-0.2 0.6-0.2 0.6-0.2 0.6-0.1 0.7-0.2 0.6-0.1 0.6-0.1 0.7-0.1 0.6v0.7l-0.1 0.6v0.7 0.6 0.2 44.9 0.8 0.7 0.6l0.1 0.7v0.6l0.1 0.7 0.1 0.6 0.1 0.6 0.1 0.7 0.2 0.6 0.1 0.6 0.2 0.6 0.2 0.6 0.2 0.6 0.2 0.6 0.3 0.6 0.3 0.6 0.3 0.5 0.3 0.6 0.3 0.5 0.4 0.5 0.3 0.6 0.4 0.5 0.4 0.5 0.5 0.4 0.4 0.5 0.4 0.5 0.5 0.4 0.5 0.4 0.5 0.4 0.5 0.4 0.5 0.4 0.5 0.4 0.6 0.4 0.5 0.3 0.6 0.3 0.2 0.1 0.6 0.4 0.6 0.3 5.3 3.2 1.2 0.6 0.6 0.4 2.4 1.4 1.2 0.7 5.4 3.1 1.2 0.7 3 1.7 4.8 2.8 1.8 1 0.6 0.3 0.6 0.4 0.6 0.3 1.8 1.1 5.4 3.1 0.6 0.3 1.8 1.1 0.6 0.3 0.6 0.3 0.6 0.3 0.6 0.3 0.5 0.3 0.6 0.2 0.6 0.2 0.7 0.2 0.6 0.2 0.6 0.2 0.6 0.1 0.6 0.2 0.7 0.1 0.6 0.1h0.6l0.6 0.1h0.7 0.6 0.6 0.7l0.6-0.1 0.6-0.1 0.7-0.1 0.6-0.1 0.6-0.2 0.6-0.1 0.7-0.2 0.6-0.2 0.6-0.2 0.6-0.3 0.6-0.2 0.5-0.3 0.6-0.3 0.6-0.3 0.6-0.3 0.2-0.1 1.8-1 2.4-1.4 5.3-3.1 3.6-2.1 5.4-3.1 1.2-0.7 0.6-0.4 1.2-0.6 0.6-0.4 1.8-1 4.2-2.4 5.4-3.2 0.6-0.3 1.2-0.7 4.2-2.4 0.6-0.4 0.6-0.3 0.5-0.4 0.5-0.4 0.6-0.3 0.5-0.4 0.5-0.4 0.4-0.5 0.5-0.4 0.5-0.5 0.4-0.4 0.4-0.5 0.4-0.5 0.4-0.5 0.4-0.5 0.4-0.5 0.3-0.5 0.3-0.6 0.3-0.6 0.3-0.5 0.3-0.6 0.2-0.6 0.2-0.6 0.2-0.6 0.2-0.6 0.2-0.6 0.1-0.6 0.2-0.7 0.1-0.6 0.1-0.6 0.1-0.7v-0.6l0.1-0.7v-0.6-0.7-0.2zm-69.6-37.5q8.5-4.9 17 0l39.6 22.8q8.4 4.9 8.4 14.7v45.7q0 9.8-8.4 14.7l-39.6 22.8q-8.5 4.9-17 0l-39.6-22.8q-8.4-4.9-8.4-14.7v-45.7q0-9.8 8.4-14.7zm1.4 89c0.4 0 0.9-0.2 1.4-0.3 1.6-0.6 2.9-2.2 2.9-4.2v-70c0-2.3-2-4.3-4.3-4.3-2.5 0-4.5 2-4.5 4.3v57.7l-11.4-14.5c-0.8-0.9-2-1.6-3.4-1.6-1.3 0-2.6 0.7-3.4 1.6l-11.5 14.5v-36c0-2.3-2-4.3-4.3-4.3-2.3 0-4.3 2-4.3 4.3v48.3c0 2 1.1 3.6 2.9 4.2 1.8 0.7 3.5 0 4.8-1.5l15.8-19.8 15.9 19.8c0.7 1.1 2 1.8 3.4 1.8zm14.5 0c2.3 0 4.3-1.9 4.3-4.3v-19.9h34c2.5 0 4.3-1.9 4.3-4.3 0-2.5-1.8-4.4-4.3-4.4h-34v-34.1l31.9 18.1c2.1 1.1 4.8 0.4 5.9-1.8 1.2-1.9 0.5-4.6-1.6-5.7l-38.4-21.9c-1.4-0.7-3-0.7-4.3 0.2-1.4 0.7-2.1 2.2-2.1 3.6v70.2c0 2.4 1.8 4.3 4.3 4.3z"/>
			</g>
		</g>
	</g>
</svg>